<svg width="24" height="22" viewBox="0 0 24 22" fill="none" xmlns="http://www.w3.org/2000/svg">
<path d="M23.4249 13.4752V14.6991C23.4249 14.7694 23.382 14.8319 23.3195 14.8592C22.9369 15.0232 21.627 15.6244 21.0824 16.3818C19.6925 18.3163 18.6306 21.0824 16.2569 21.0824H6.35398C2.84417 21.0824 0 18.2285 0 14.7069V14.5937C0 14.5 0.076127 14.4239 0.169818 14.4239H5.69029C5.7996 14.4239 5.87966 14.5254 5.8699 14.6327C5.83085 14.9919 5.89722 15.3589 6.06704 15.6927C6.39498 16.3584 7.07433 16.7742 7.80828 16.7742H10.5412V14.6406H7.83953C7.70091 14.6406 7.61896 14.4805 7.69897 14.3672C7.72827 14.3224 7.76146 14.2755 7.79659 14.2228C8.05229 13.8597 8.41734 13.2956 8.78041 12.6533C9.02834 12.22 9.26845 11.7573 9.46171 11.2928C9.50076 11.2088 9.53196 11.1229 9.56321 11.039C9.6159 10.8906 9.67058 10.752 9.70959 10.6134C9.74865 10.4963 9.77989 10.3733 9.81114 10.2581C9.90289 9.86383 9.9419 9.44608 9.9419 9.01271C9.9419 8.84289 9.93409 8.66527 9.91847 8.49541C9.9107 8.30997 9.88726 8.12453 9.86383 7.93909C9.84821 7.77509 9.81895 7.61309 9.7877 7.44327C9.74865 7.19534 9.69401 6.9494 9.63152 6.70147L9.61007 6.60778C9.56321 6.43796 9.52415 6.27591 9.46952 6.10609C9.31528 5.57316 9.13765 5.05392 8.95027 4.56785C8.88195 4.3746 8.80384 4.18916 8.72577 4.00372C8.61059 3.72455 8.49346 3.47079 8.38609 3.23067C8.33146 3.12136 8.28459 3.0218 8.23777 2.9203C8.18503 2.80512 8.1304 2.68998 8.07572 2.58062C8.03671 2.49668 7.99178 2.41862 7.96054 2.34055L7.62677 1.72368C7.5799 1.63974 7.65797 1.54018 7.74972 1.56556L9.83845 2.13167H9.84432C9.84821 2.13167 9.85015 2.13362 9.85213 2.13362L10.1273 2.20974L10.4299 2.29562L10.5412 2.32687V1.08536C10.5412 0.486062 11.0214 0 11.6148 0C11.9116 0 12.1809 0.121009 12.3742 0.318186C12.5674 0.515364 12.6885 0.784742 12.6885 1.08536V2.92811L12.911 2.99056C12.9286 2.99643 12.9461 3.00424 12.9618 3.01593C13.0164 3.05693 13.0945 3.11748 13.1941 3.19162C13.2721 3.25411 13.3561 3.33024 13.4576 3.4083C13.6587 3.57035 13.8988 3.77923 14.1623 4.0193C14.2326 4.07985 14.3009 4.14229 14.3634 4.20478C14.703 4.52099 15.0837 4.89191 15.4467 5.30184C15.5483 5.41698 15.6478 5.53411 15.7493 5.6571C15.8509 5.78204 15.9582 5.90503 16.0519 6.02802C16.1749 6.19197 16.3076 6.36179 16.4228 6.53946C16.4774 6.6234 16.5399 6.70928 16.5926 6.79322C16.741 7.01771 16.8718 7.25002 16.9967 7.48228C17.0494 7.58965 17.1041 7.70678 17.1509 7.82196C17.2895 8.13234 17.3988 8.44858 17.4691 8.76483C17.4906 8.83314 17.5062 8.90733 17.514 8.9737V8.98928C17.5374 9.08301 17.5452 9.18257 17.553 9.28407C17.5843 9.60809 17.5687 9.93214 17.4984 10.2581C17.4691 10.3968 17.4301 10.5275 17.3832 10.6661C17.3364 10.7989 17.2895 10.9375 17.229 11.0683C17.1119 11.3396 16.9733 11.6109 16.8093 11.8647C16.7566 11.9584 16.6941 12.0579 16.6317 12.1516C16.5634 12.2512 16.4931 12.3449 16.4306 12.4367C16.3447 12.5538 16.253 12.6768 16.1593 12.7861C16.0753 12.9013 15.9894 13.0164 15.8957 13.1179C15.7649 13.2721 15.64 13.4186 15.5092 13.5591C15.4311 13.6509 15.3472 13.7446 15.2613 13.8285C15.1774 13.9222 15.0915 14.0061 15.0134 14.0842C14.8826 14.215 14.7733 14.3165 14.6816 14.4004L14.4668 14.5976C14.4356 14.6249 14.3946 14.6406 14.3516 14.6406H12.6885V16.7742H14.7811C15.2496 16.7742 15.6947 16.6082 16.0539 16.3037C16.1768 16.1964 16.7137 15.7317 17.3481 15.031C17.3695 15.0075 17.3969 14.99 17.4281 14.9822L23.2082 13.3112C23.3156 13.2799 23.4249 13.3619 23.4249 13.4752Z" fill="#E1BF7F"/>
</svg>
