<svg width="24" height="19" viewBox="0 0 24 19" fill="none" xmlns="http://www.w3.org/2000/svg">
<g clip-path="url(#clip0_1_506)">
<path d="M20.317 1.63645C18.7873 0.942739 17.147 0.431647 15.4319 0.138923C15.4007 0.133274 15.3695 0.147392 15.3534 0.175629C15.1424 0.546474 14.9087 1.03027 14.7451 1.41053C12.9004 1.13758 11.0652 1.13758 9.25832 1.41053C9.09465 1.02182 8.85248 0.546474 8.64057 0.175629C8.62449 0.148334 8.59328 0.134216 8.56205 0.138923C6.84791 0.430712 5.20756 0.941804 3.67693 1.63645C3.66368 1.64209 3.65233 1.65151 3.64479 1.66374C0.533392 6.25796 -0.31895 10.7393 0.0991801 15.165C0.101072 15.1866 0.11337 15.2074 0.130398 15.2205C2.18321 16.7105 4.17171 17.615 6.12328 18.2146C6.15451 18.224 6.18761 18.2127 6.20748 18.1873C6.66913 17.5642 7.08064 16.9072 7.43348 16.2163C7.4543 16.1759 7.43442 16.1279 7.39186 16.1119C6.73913 15.8671 6.1176 15.5688 5.51973 15.2299C5.47244 15.2026 5.46865 15.1358 5.51216 15.1038C5.63797 15.0106 5.76382 14.9137 5.88396 14.8158C5.90569 14.7979 5.93598 14.7941 5.96153 14.8054C9.88928 16.5778 14.1415 16.5778 18.023 14.8054C18.0485 14.7932 18.0788 14.797 18.1015 14.8148C18.2216 14.9127 18.3475 15.0106 18.4742 15.1038C18.5177 15.1358 18.5149 15.2026 18.4676 15.2299C17.8697 15.5754 17.2482 15.8671 16.5945 16.1109C16.552 16.1269 16.533 16.1759 16.5538 16.2163C16.9143 16.9063 17.3258 17.5633 17.7789 18.1864C17.7978 18.2127 17.8319 18.224 17.8631 18.2146C19.8241 17.615 21.8126 16.7105 23.8654 15.2205C23.8834 15.2074 23.8948 15.1876 23.8967 15.1659C24.3971 10.0493 23.0585 5.60474 20.3482 1.66468C20.3416 1.65151 20.3303 1.64209 20.317 1.63645ZM8.02002 12.4702C6.8375 12.4702 5.86313 11.3972 5.86313 10.0794C5.86313 8.76167 6.8186 7.68867 8.02002 7.68867C9.23087 7.68867 10.1958 8.77109 10.1769 10.0794C10.1769 11.3972 9.22141 12.4702 8.02002 12.4702ZM15.9947 12.4702C14.8123 12.4702 13.8379 11.3972 13.8379 10.0794C13.8379 8.76167 14.7933 7.68867 15.9947 7.68867C17.2056 7.68867 18.1705 8.77109 18.1516 10.0794C18.1516 11.3972 17.2056 12.4702 15.9947 12.4702Z" fill="black"/>
</g>
<defs>
<clipPath id="clip0_1_506">
<rect width="24" height="18.375" fill="white"/>
</clipPath>
</defs>
</svg>
